# xmcd
# 
# Track frame offsets:
#     150
#     14188
#     26950
#     39161
#     55798
#     71136
#     88620
#     103245
#     128565
#     146007
#     158126
#     175587
# 
# Disc length: 2619
# 
# Revision: 9
# Processed by: cddbd v1.5.2PL0 Copyright (c) Steve Scherf et al.
# Submitted via: fre:ac v1.0.31
# 
DISCID=a30a390c
DTITLE=Putumayo Presents - Americana
DYEAR=2007
DGENRE=World
TTITLE0=RobinElla - Down the Mountain
TTITLE1=Mulehead - Frankie Lee
TTITLE2=The Little Willies - It's Not You, It's Me
TTITLE3=Robert Earl Keen - Ride
TTITLE4=Eliza Lynn - Sing a New Song
TTITLE5=Old Crow Medicine Show - Wagon Wheel
TTITLE6=Chip Taylor and Carrie Rodriguez - Sweet Tequila Blues
TTITLE7=Tim O' Brien - House of the Risin' Sun
TTITLE8=Alison Brown - Deep Gap
TTITLE9=Terri Hendrix - Prayer for My Friends
TTITLE10=Josh Ritter - Harrisburg
TTITLE11=Ruthie Foster - Hole in My Pocket
EXTD=Putumayo World Music\nPUT 266-2
EXTT0=
EXTT1=
EXTT2=
EXTT3=
EXTT4=
EXTT5=
EXTT6=
EXTT7=
EXTT8=
EXTT9=
EXTT10=
EXTT11=
PLAYORDER=
